Coordinates
version=1
nRows=13
nColumns=40
inDegrees=yes

Units are S.I. units (second, meters, Newtons, ...)
Angles are in degrees.

endheader
time	pelvis_tilt	pelvis_list	pelvis_rotation	pelvis_tx	pelvis_ty	pelvis_tz	hip_flexion_r	hip_adduction_r	hip_rotation_r	knee_angle_r	knee_angle_r_beta	ankle_angle_r	subtalar_angle_r	mtp_angle_r	hip_flexion_l	hip_adduction_l	hip_rotation_l	knee_angle_l	knee_angle_l_beta	ankle_angle_l	subtalar_angle_l	mtp_angle_l	lumbar_extension	lumbar_bending	lumbar_rotation	arm_flex_r	arm_add_r	arm_rot_r	elbow_flex_r	pro_sup_r	wrist_flex_r	wrist_dev_r	arm_flex_l	arm_add_l	arm_rot_l	elbow_flex_l	pro_sup_l	wrist_flex_l	wrist_dev_l
     38.50000000	     -7.13712884	     -3.53640780	      3.51556020	      1.03706933	      0.92726965	      0.39998458	     34.88267837	     -7.80715833	     -7.91062765	     69.18876664	     69.18876664	      6.41536263	    -18.94580513	      9.01029454	     19.68489726	     -4.17527390	     -6.74727952	     22.36102771	     22.36102771	     13.79385386	     -2.25035332	     -1.68428159	    -11.82120196	      3.68280553	      1.28089242	      9.53339118	    -15.32958751	      9.89334076	     53.28356225	     43.76239601	      0.00000000	      0.00000000	      5.67693031	    -12.23701214	     -7.88783661	     48.82434791	     44.07738743	      0.00000000	      0.00000000
     38.51207143	     -7.16264951	     -3.62779976	      3.36384380	      1.03580029	      0.92773289	      0.40001206	     36.02680658	     -7.70669281	     -7.78123534	     68.26556921	     68.26556921	      6.49530992	    -18.86963406	      9.50364851	     19.05018615	     -4.31351788	     -6.89076032	     22.00058544	     22.00058544	     14.02671152	     -2.09371593	     -1.81077808	    -11.90333097	      3.83600563	      1.27912844	      8.39190487	    -15.65131661	      9.45751053	     49.52593787	     44.01300814	      0.00000000	      0.00000000	      6.80677353	    -12.59049633	     -8.24603926	     49.98425592	     44.31183000	      0.00000000	      0.00000000
     38.52414286	     -7.09769520	     -3.68063939	      3.18236654	      1.03464429	      0.92829241	      0.40004041	     36.95973240	     -7.62090043	     -7.63449935	     67.16576880	     67.16576880	      6.37932936	    -18.81124539	      9.47488627	     18.25533121	     -4.42134250	     -7.10506046	     21.55218322	     21.55218322	     14.27085417	     -1.88176927	     -1.85129087	    -12.15780155	      3.95817139	      1.61883116	      6.59927511	    -16.45298087	      9.39684877	     47.51566414	     44.10335291	      0.00000000	      0.00000000	      8.04763436	    -12.78947005	     -8.56640801	     51.46141360	     44.40741829	      0.00000000	      0.00000000
     38.53621429	     -7.03386202	     -3.70742472	      2.98428697	      1.03351590	      0.92876782	      0.40019429	     37.78690732	     -7.54999301	     -7.49701486	     65.88731130	     65.88731130	      6.16805317	    -18.73270590	      9.21932366	     17.49985114	     -4.52276398	     -7.37819605	     21.17562075	     21.17562075	     14.51719963	     -1.60576436	     -2.01020869	    -12.40494225	      4.01562288	      1.77502261	      5.36722168	    -16.79119116	      8.83505586	     44.26267953	     44.28575350	      0.00000000	      0.00000000	      8.96699715	    -13.09689340	     -8.91947436	     53.46735172	     44.54288869	      0.00000000	      0.00000000
     38.54828571	     -7.01620522	     -3.76033989	      2.82172945	      1.03247702	      0.92913396	      0.40040115	     38.51975323	     -7.45051307	     -7.41020247	     64.37399970	     64.37399970	      5.84201862	    -18.70228764	      8.54008589	     16.74813976	     -4.61542993	     -7.55356965	     20.67518523	     20.67518523	     14.68220324	     -1.41889659	     -2.16915129	    -12.54126945	      4.13189390	      1.21253946	      5.26464471	    -16.35715999	      7.19303467	     39.27350089	     44.65401102	      0.00000000	      0.00000000	      9.10379794	    -13.69942229	     -9.66638745	     56.10120788	     44.83919136	      0.00000000	      0.00000000
     38.56035714	     -6.95497163	     -3.75550530	      2.63113816	      1.03150498	      0.92951163	      0.40073962	     39.11486853	     -7.36792683	     -7.28306376	     62.66788333	     62.66788333	      5.71193609	    -18.60427844	      8.59832634	     15.98134193	     -4.65572972	     -7.72755523	     20.25491331	     20.25491331	     14.87564702	     -1.32875275	     -2.14705253	    -12.78334302	      4.19282607	      1.53562317	      3.65577730	    -16.97872207	      7.07151492	     37.67608232	     44.72795944	      0.00000000	      0.00000000	     10.23944255	    -13.84152192	    -10.03255166	     57.47635741	     44.92992856	      0.00000000	      0.00000000
     38.57242857	     -6.91418951	     -3.75066541	      2.41681366	      1.03056273	      0.92974869	      0.40128257	     39.62256804	     -7.24435607	     -7.13402788	     60.73633847	     60.73633847	      5.57754127	    -18.46561771	      8.50695541	     15.23306436	     -4.70126129	     -7.89239275	     19.82622847	     19.82622847	     15.10414549	     -1.27096533	     -2.14842259	    -12.99180446	      4.20227041	      1.81011460	      2.23392139	    -17.45680425	      6.80590790	     35.81885500	     44.82320003	      0.00000000	      0.00000000	     11.21637763	    -13.97282991	    -10.37054768	     59.16662418	     45.02094589	      0.00000000	      0.00000000
     38.58450000	     -6.88750067	     -3.67986819	      2.21730958	      1.02965706	      0.92992392	      0.40193274	     40.00064516	     -7.16635472	     -6.98022756	     58.51254335	     58.51254335	      5.35904142	    -18.29526404	      8.16530504	     14.53295566	     -4.67688256	     -8.03286551	     19.45092263	     19.45092263	     15.23811855	     -1.26064725	     -2.12841862	    -13.17958633	      4.16937219	      2.03016390	      1.05028635	    -17.74252133	      6.32719645	     33.74449985	     44.94724193	      0.00000000	      0.00000000	     11.93251249	    -14.17810055	    -10.75606043	     61.25473778	     45.12756776	      0.00000000	      0.00000000
     38.59657143	     -6.90376168	     -3.68243612	      2.02524734	      1.02881154	      0.92996364	      0.40279744	     40.27233843	     -7.02294616	     -6.95519588	     55.99914851	     55.99914851	      5.07224681	    -18.02081971	      7.77730076	     13.86074508	     -4.72326447	     -8.09894606	     19.03803745	     19.03803745	     15.44974651	     -1.31330989	     -2.10270739	    -13.29384491	      4.19435134	      2.10993576	     -0.11330786	    -17.98091346	      5.84312867	     32.00099236	     45.05765784	      0.00000000	      0.00000000	     12.53214024	    -14.46155835	    -11.17407717	     63.30650733	     45.23000410	      0.00000000	      0.00000000
     38.60864286	     -6.99092051	     -3.54735927	      1.89987083	      1.02789183	      0.92981980	      0.40368296	     40.40314307	     -7.05125349	     -6.97125723	     53.08215326	     53.08215326	      4.16686266	    -17.79519103	      5.22500380	     13.35293677	     -4.60772370	     -8.07282520	     18.75734041	     18.75734041	     15.48980842	     -1.52883345	     -2.08753070	    -13.39761315	      4.03542905	      1.29041234	     -0.09134910	    -17.56364485	      3.69260653	     28.91561652	     45.39486785	      0.00000000	      0.00000000	     11.79660078	    -15.08724728	    -12.21904978	     67.32393236	     45.51425504	      0.00000000	      0.00000000
     38.62071429	     -7.03230536	     -3.51466671	      1.74161627	      1.02712177	      0.92966938	      0.40487703	     40.38570681	     -6.86862586	     -6.98276139	     50.02899092	     50.02899092	      3.99038589	    -17.22447137	      5.16214281	     12.76036261	     -4.64306808	     -8.13290537	     18.44789867	     18.44789867	     15.69170754	     -1.57083635	     -2.06344576	    -13.48027611	      4.02889922	      1.56414615	     -1.46016462	    -17.90637419	      3.42306134	     27.98796673	     45.45365229	      0.00000000	      0.00000000	     12.68910254	    -15.08258209	    -12.61338708	     68.73375324	     45.60161126	      0.00000000	      0.00000000
     38.63278571	     -7.22855861	     -3.51766863	      1.64917915	      1.02634210	      0.92923956	      0.40626734	     40.33515837	     -6.68241926	     -7.16407154	     46.70218911	     46.70218911	      3.83704887	    -16.35209742	      5.25801155	     12.39105082	     -4.72230919	     -8.11071490	     18.20890872	     18.20890872	     15.85310550	     -1.60030390	     -2.06050386	    -13.33101992	      4.01473034	      1.55746989	     -2.72670583	    -18.13596728	      3.25527384	     27.36690426	     45.48678950	      0.00000000	      0.00000000	     13.36953245	    -15.39836360	    -12.92385059	     69.99424608	     45.66274662	      0.00000000	      0.00000000
     38.64485714	     -7.22003846	     -3.45822876	      1.55696926	      1.02574387	      0.92890618	      0.40760189	     39.90764483	     -6.58500163	     -7.48256328	     43.20315489	     43.20315489	      3.46528931	    -15.16762364	      4.98262060	     11.77404943	     -4.73000659	     -8.10133513	     17.97381723	     17.97381723	     16.08418182	     -1.72550409	     -2.04553280	    -13.48819148	      3.98087014	      1.87896513	     -4.13292515	    -18.39957899	      2.88327982	     26.72218427	     45.53968040	      0.00000000	      0.00000000	     13.85926188	    -15.20776167	    -13.21204394	     72.43565489	     45.75055268	      0.00000000	      0.00000000
